<?xml version="1.0" encoding="iso-8859-1"?>
<!-- Generator: Adobe Illustrator 19.1.0, SVG Export Plug-In . SVG Version: 6.00 Build 0)  -->
<svg version="1.1" id="Capa_1" xmlns="http://www.w3.org/2000/svg" xmlns:xlink="http://www.w3.org/1999/xlink" x="0px" y="0px"
	 viewBox="0 0 49.859 49.859" style="enable-background:new 0 0 49.859 49.859;" xml:space="preserve">
<g>
	<g>
		<g id="group-18svg">
			<path id="path-1_10_" d="M22.517,21.682c-0.566,0-1.108-0.321-1.362-0.868L13.833,5.059L6.511,20.814
				c-0.35,0.752-1.244,1.077-1.993,0.729c-0.751-0.35-1.077-1.242-0.728-1.993l8.683-18.682C12.719,0.338,13.249,0,13.833,0
				c0.584,0,1.114,0.338,1.36,0.868l8.683,18.682c0.349,0.751,0.023,1.643-0.729,1.993C22.944,21.637,22.729,21.682,22.517,21.682z"
				/>
			<path id="path-2_9_" d="M44.708,49.859H26.48c-8.421,0-14.345-5.662-14.345-13.17V2.859c0-0.828,0.672-1.5,1.5-1.5
				s1.5,0.672,1.5,1.5v33.83c0,6.606,5.638,10.17,11.345,10.17h18.228c0.828,0,1.5,0.672,1.5,1.5S45.536,49.859,44.708,49.859z"/>
		</g>
	</g>
	<g>
	</g>
	<g>
	</g>
	<g>
	</g>
	<g>
	</g>
	<g>
	</g>
	<g>
	</g>
	<g>
	</g>
	<g>
	</g>
	<g>
	</g>
	<g>
	</g>
	<g>
	</g>
	<g>
	</g>
	<g>
	</g>
	<g>
	</g>
	<g>
	</g>
</g>
<g>
</g>
<g>
</g>
<g>
</g>
<g>
</g>
<g>
</g>
<g>
</g>
<g>
</g>
<g>
</g>
<g>
</g>
<g>
</g>
<g>
</g>
<g>
</g>
<g>
</g>
<g>
</g>
<g>
</g>
</svg>
